<svg width="61" height="61" viewBox="0 0 61 61" fill="none" xmlns="http://www.w3.org/2000/svg">
<g clip-path="url(#clip0_8_14)">
<path d="M13.7953 10.1875H15.4828V49H13.7953V10.1875ZM10.4203 10.1875H12.1078V49H10.4203V10.1875ZM7.04531 10.1875H8.73281V49H7.04531V10.1875ZM3.67031 10.1875H5.35781V49H3.67031V10.1875ZM35.4938 37.6094L36.1734 35.9219H41.9391L42.6188 37.6094H35.4938ZM34.1813 40.9844L34.8375 39.2969H43.2516L43.9781 40.9844H34.1813ZM32.8688 44.3594L33.525 42.6719H44.5875L45.2906 44.3594H32.8688ZM19.1578 49H17.3297L32.6813 10.1875H34.5094L49.8375 49H48.0328L33.5953 12.4609L19.1578 49ZM33.8063 16.4688L34.7672 18.625L22.7672 49H20.9625L33.8063 16.4688ZM35.6813 20.9219L36.5719 23.2422L26.4234 49H24.5953L35.6813 20.9219ZM37.4625 25.5625L38.3531 27.9297L30.0328 49H28.2281L37.4625 25.5625ZM60.7359 49H58.9078L43.5797 10.1875H45.3844L60.7359 49ZM41.7516 10.1875L57.1031 49H55.2984L39.9469 10.1875H41.7516ZM38.1188 10.1875L53.4703 49H51.6422L36.3141 10.1875H38.1188Z" fill="#D2D2D2"/>
</g>
<defs>
<clipPath id="clip0_8_14">
<rect width="61" height="61" fill="white"/>
</clipPath>
</defs>
</svg>
