<svg width="90" height="90" viewBox="0 0 90 90" fill="none" xmlns="http://www.w3.org/2000/svg">
<g clip-path="url(#clip0_2_10)">
<path d="M60.2344 52.6875L63.6094 46.3125V81H60.2344V52.6875ZM66.9844 39.75L70.3594 33.375V81H66.9844V39.75ZM73.7344 27L77.1094 20.5781V81H73.7344V27ZM51.0938 51.0938L49.1719 47.5781L72.4219 3.375H76.2188L51.0938 51.0938ZM47.2031 43.7344L45.2344 40.1719L64.7344 3.375H68.5781L47.2031 43.7344ZM24.6094 46.6875L27.9844 53.0625V81H24.6094V46.6875ZM17.8594 33.8438L21.2344 40.2188V81H17.8594V33.8438ZM11.1094 21L14.4844 27.4219V81H11.1094V21ZM38.3906 60.75H34.5938L7.73438 9.79688V81H4.35938V3.375H8.15625L38.3906 60.75ZM46.0312 60.75H42.1875L12 3.375H15.8438L46.0312 60.75ZM80.4844 9.79688L53.625 60.75H49.7812L19.6406 3.375H23.4375L51.75 57.1875L80.0156 3.375H83.8594V81H80.4844V9.79688Z" fill="#D2D2D2"/>
</g>
<defs>
<clipPath id="clip0_2_10">
<rect width="90" height="90" fill="white"/>
</clipPath>
</defs>
</svg>
