<svg width="314" height="92" viewBox="0 0 314 92" fill="none" xmlns="http://www.w3.org/2000/svg">
<path d="M18.8844 4.1875H20.5719V43H18.8844V4.1875ZM15.5094 4.1875H17.1969V43H15.5094V4.1875ZM12.1344 4.1875H13.8219V43H12.1344V4.1875ZM8.75937 4.1875H10.4469V43H8.75937V4.1875ZM50.45 29.3828L48.7625 26.3125V9.25H50.45V29.3828ZM53.825 35.2188L52.1375 32.3594V9.25H53.825V35.2188ZM30.575 22.8672L32.2625 25.9375V43H30.575V22.8672ZM27.2 16.7969L28.8875 19.8906V43H27.2V16.7969ZM27.7859 9.25H29.7547L49.3016 43H47.3328L27.7859 9.25ZM31.7703 9.25H33.7625L53.2859 43H51.2703L31.7703 9.25ZM35.7312 9.25H37.7L55.5125 40.0703V9.25H57.2V43H55.2078L35.7312 9.25ZM25.5125 12.1562V43H23.825V9.25H25.8406L45.3172 43H43.3719L25.5125 12.1562ZM70.5312 32.875V19.375C70.5312 19.375 73.6484 19.375 79.8828 19.375C81.6172 19.375 83.1016 20.0312 84.3359 21.3438C85.5859 22.6562 86.2109 24.2344 86.2109 26.0781C86.2109 27.9844 85.5937 29.5938 84.3594 30.9062C83.125 32.2188 81.6328 32.875 79.8828 32.875H70.5312ZM72.2187 31.1875H79.8828C81.1484 31.1875 82.2266 30.6953 83.1172 29.7109C84.0234 28.7266 84.4766 27.5156 84.4766 26.0781C84.4766 24.7031 84.0234 23.5234 83.1172 22.5391C82.2266 21.5547 81.1484 21.0625 79.8828 21.0625H72.2187V31.1875ZM68.8437 34.5625H79.8828C82.1016 34.5625 84 33.7422 85.5781 32.1016C87.1562 30.4453 87.9453 28.4375 87.9453 26.0781C87.9453 23.7656 87.1484 21.7891 85.5547 20.1484C83.9766 18.5078 82.0859 17.6875 79.8828 17.6875H68.8437V34.5625ZM67.1562 36.25V16H79.8828C82.5547 16 84.8516 16.9922 86.7734 18.9766C88.7109 20.9453 89.6797 23.3125 89.6797 26.0781C89.6797 28.9062 88.7187 31.3125 86.7969 33.2969C84.875 35.2656 82.5703 36.25 79.8828 36.25H67.1562ZM65.4687 37.9375H79.8828C81.9453 37.9375 83.8594 37.4141 85.625 36.3672C87.3906 35.3203 88.7969 33.8828 89.8437 32.0547C90.8906 30.2266 91.4141 28.2344 91.4141 26.0781C91.4141 23.9688 90.8906 22.0078 89.8437 20.1953C88.7969 18.3828 87.3828 16.9531 85.6016 15.9062C83.8359 14.8438 81.9297 14.3125 79.8828 14.3125H65.4687V37.9375ZM63.7812 39.625V12.625H79.8828C82.2422 12.625 84.4375 13.2266 86.4687 14.4297C88.5156 15.6328 90.1406 17.2734 91.3437 19.3516C92.5469 21.4141 93.1484 23.6562 93.1484 26.0781C93.1484 28.5312 92.5469 30.8047 91.3437 32.8984C90.1406 34.9766 88.5156 36.6172 86.4687 37.8203C84.4375 39.0234 82.2422 39.625 79.8828 39.625H63.7812ZM62.0937 41.3125H79.8828C82.5547 41.3125 85.0391 40.6406 87.3359 39.2969C89.6328 37.9375 91.4609 36.0859 92.8203 33.7422C94.1953 31.3984 94.8828 28.8438 94.8828 26.0781C94.8828 23.3594 94.1953 20.8359 92.8203 18.5078C91.4609 16.1641 89.625 14.3203 87.3125 12.9766C85.0156 11.6172 82.5391 10.9375 79.8828 10.9375H62.0937V41.3125ZM79.8828 43H60.4062V9.25H79.8828C82.8516 9.25 85.6172 10.0078 88.1797 11.5234C90.7578 13.0234 92.8047 15.0703 94.3203 17.6641C95.8516 20.2422 96.6172 23.0469 96.6172 26.0781C96.6172 28.375 96.1641 30.5703 95.2578 32.6641C94.3672 34.7578 93.1641 36.5625 91.6484 38.0781C90.1484 39.5781 88.3672 40.7734 86.3047 41.6641C84.2422 42.5547 82.1016 43 79.8828 43ZM109.316 9.25H111.003V43H109.316V9.25ZM105.941 9.25H107.628V43H105.941V9.25ZM102.566 9.25H104.253V43H102.566V9.25ZM99.1906 9.25H100.878V43H99.1906V9.25ZM112.873 9.25H114.702L127.147 40.7266L139.592 9.25H141.397L128.061 43H126.233L112.873 9.25ZM116.506 9.25H118.311L128.319 34.5625L127.358 36.7188L116.506 9.25ZM120.139 9.25H121.967L130.123 29.9453L129.233 32.2656L120.139 9.25ZM123.772 9.25H125.577L131.905 25.2578L131.014 27.625L123.772 9.25ZM150.467 9.25H152.295L138.936 43H137.131L150.467 9.25ZM146.858 9.25H148.662L135.303 43H133.498L146.858 9.25ZM143.202 9.25H145.03L131.67 43H129.866L143.202 9.25ZM164.197 9.25H165.884V43H164.197V9.25ZM160.822 9.25H162.509V43H160.822V9.25ZM157.447 9.25H159.134V43H157.447V9.25ZM154.072 9.25H155.759V43H154.072V9.25ZM179.216 32.875V19.375C179.216 19.375 182.333 19.375 188.567 19.375C190.302 19.375 191.786 20.0312 193.02 21.3438C194.27 22.6562 194.895 24.2344 194.895 26.0781C194.895 27.9844 194.278 29.5938 193.044 30.9062C191.809 32.2188 190.317 32.875 188.567 32.875H179.216ZM180.903 31.1875H188.567C189.833 31.1875 190.911 30.6953 191.802 29.7109C192.708 28.7266 193.161 27.5156 193.161 26.0781C193.161 24.7031 192.708 23.5234 191.802 22.5391C190.911 21.5547 189.833 21.0625 188.567 21.0625H180.903V31.1875ZM177.528 34.5625H188.567C190.786 34.5625 192.684 33.7422 194.262 32.1016C195.841 30.4453 196.63 28.4375 196.63 26.0781C196.63 23.7656 195.833 21.7891 194.239 20.1484C192.661 18.5078 190.77 17.6875 188.567 17.6875H177.528V34.5625ZM175.841 36.25V16H188.567C191.239 16 193.536 16.9922 195.458 18.9766C197.395 20.9453 198.364 23.3125 198.364 26.0781C198.364 28.9062 197.403 31.3125 195.481 33.2969C193.559 35.2656 191.255 36.25 188.567 36.25H175.841ZM174.153 37.9375H188.567C190.63 37.9375 192.544 37.4141 194.309 36.3672C196.075 35.3203 197.481 33.8828 198.528 32.0547C199.575 30.2266 200.098 28.2344 200.098 26.0781C200.098 23.9688 199.575 22.0078 198.528 20.1953C197.481 18.3828 196.067 16.9531 194.286 15.9062C192.52 14.8438 190.614 14.3125 188.567 14.3125H174.153V37.9375ZM172.466 39.625V12.625H188.567C190.927 12.625 193.122 13.2266 195.153 14.4297C197.2 15.6328 198.825 17.2734 200.028 19.3516C201.231 21.4141 201.833 23.6562 201.833 26.0781C201.833 28.5312 201.231 30.8047 200.028 32.8984C198.825 34.9766 197.2 36.6172 195.153 37.8203C193.122 39.0234 190.927 39.625 188.567 39.625H172.466ZM170.778 41.3125H188.567C191.239 41.3125 193.723 40.6406 196.02 39.2969C198.317 37.9375 200.145 36.0859 201.505 33.7422C202.88 31.3984 203.567 28.8438 203.567 26.0781C203.567 23.3594 202.88 20.8359 201.505 18.5078C200.145 16.1641 198.309 14.3203 195.997 12.9766C193.7 11.6172 191.223 10.9375 188.567 10.9375H170.778V41.3125ZM188.567 43H169.091V9.25H188.567C191.536 9.25 194.302 10.0078 196.864 11.5234C199.442 13.0234 201.489 15.0703 203.005 17.6641C204.536 20.2422 205.302 23.0469 205.302 26.0781C205.302 28.375 204.848 30.5703 203.942 32.6641C203.052 34.7578 201.848 36.5625 200.333 38.0781C198.833 39.5781 197.052 40.7734 194.989 41.6641C192.927 42.5547 190.786 43 188.567 43ZM230.023 28.0469V9.25H231.711V28.0469C231.711 29.8281 231.023 31.3594 229.648 32.6406C228.289 33.9219 226.648 34.5625 224.727 34.5625C222.805 34.5625 221.156 33.9219 219.781 32.6406C218.422 31.3594 217.742 29.8281 217.742 28.0469V9.25H219.43V28.0469C219.43 29.375 219.945 30.5156 220.977 31.4688C222.023 32.4062 223.273 32.875 224.727 32.875C226.18 32.875 227.422 32.4062 228.453 31.4688C229.5 30.5156 230.023 29.375 230.023 28.0469ZM233.398 28.0469V9.25H235.086V28.0469C235.086 30.7812 234.07 33.1172 232.039 35.0547C230.008 36.9766 227.57 37.9375 224.727 37.9375C221.883 37.9375 219.445 36.9766 217.414 35.0547C215.383 33.1172 214.367 30.7812 214.367 28.0469V9.25H216.055V28.0469C216.055 30.3125 216.898 32.25 218.586 33.8594C220.289 35.4531 222.336 36.25 224.727 36.25C227.102 36.25 229.141 35.4531 230.844 33.8594C232.547 32.25 233.398 30.3125 233.398 28.0469ZM236.773 28.0469V9.25H238.461V28.0469C238.461 30.4375 237.844 32.6562 236.609 34.7031C235.375 36.7344 233.703 38.3438 231.594 39.5312C229.484 40.7188 227.195 41.3125 224.727 41.3125C222.258 41.3125 219.969 40.7188 217.859 39.5312C215.75 38.3438 214.078 36.7344 212.844 34.7031C211.609 32.6562 210.992 30.4375 210.992 28.0469V9.25H212.68V28.0469C212.68 30.125 213.219 32.0547 214.297 33.8359C215.375 35.6172 216.836 37.0312 218.68 38.0781C220.539 39.1094 222.555 39.625 224.727 39.625C226.898 39.625 228.906 39.1094 230.75 38.0781C232.609 37.0312 234.078 35.6172 235.156 33.8359C236.234 32.0547 236.773 30.125 236.773 28.0469ZM240.148 28.0469V9.25H241.836V28.0469C241.836 30.2969 241.383 32.4531 240.477 34.5156C239.57 36.5625 238.352 38.3281 236.82 39.8125C235.289 41.2969 233.469 42.4766 231.359 43.3516C229.25 44.2422 227.039 44.6875 224.727 44.6875C222.414 44.6875 220.203 44.2422 218.094 43.3516C215.984 42.4766 214.164 41.2969 212.633 39.8125C211.102 38.3281 209.883 36.5625 208.977 34.5156C208.07 32.4531 207.617 30.2969 207.617 28.0469V9.25H209.305V28.0469C209.305 30.7344 209.992 33.2266 211.367 35.5234C212.758 37.8203 214.633 39.6406 216.992 40.9844C219.367 42.3281 221.945 43 224.727 43C227.508 43 230.078 42.3281 232.438 40.9844C234.812 39.6406 236.688 37.8203 238.062 35.5234C239.453 33.2266 240.148 30.7344 240.148 28.0469ZM268.831 26.3594C268.831 24.3594 268.214 22.8125 266.98 21.7188C265.745 20.625 264.112 20.0781 262.081 20.0781C260.362 20.0781 258.886 20.6719 257.652 21.8594C256.417 23.0469 255.8 24.4688 255.8 26.125C255.8 27.0625 255.925 27.9062 256.175 28.6562C256.425 29.3906 256.761 30.0078 257.183 30.5078C257.62 30.9922 258.136 31.3984 258.73 31.7266C259.323 32.0391 259.941 32.2656 260.581 32.4062C261.237 32.5469 261.933 32.6172 262.667 32.6172C264.448 32.6172 266.073 32.1797 267.542 31.3047V32.9922C266.027 33.7891 264.394 34.1875 262.644 34.1875C261.519 34.1875 260.456 34.0391 259.456 33.7422C258.472 33.4297 257.573 32.9688 256.761 32.3594C255.948 31.7344 255.3 30.8906 254.816 29.8281C254.347 28.75 254.112 27.5156 254.112 26.125C254.112 23.9688 254.87 22.1406 256.386 20.6406C257.902 19.1406 259.8 18.3906 262.081 18.3906C264.597 18.3906 266.628 19.1016 268.175 20.5234C269.737 21.9297 270.519 23.875 270.519 26.3594V43H268.831V26.3594ZM273.894 26.3594V43H272.206V26.3594C272.206 23.4062 271.261 21.0625 269.37 19.3281C267.48 17.5781 265.05 16.7031 262.081 16.7031C259.331 16.7031 257.034 17.6172 255.191 19.4453C253.347 21.2734 252.425 23.5 252.425 26.125C252.425 27.7188 252.698 29.1484 253.245 30.4141C253.808 31.6797 254.566 32.6953 255.519 33.4609C256.472 34.2266 257.534 34.8125 258.706 35.2188C259.894 35.6094 261.144 35.8047 262.456 35.8047C264.237 35.8047 265.933 35.3906 267.542 34.5625V36.3438C265.855 37.0469 264.152 37.3984 262.433 37.3984C260.886 37.3984 259.417 37.1641 258.027 36.6953C256.636 36.2109 255.394 35.5156 254.3 34.6094C253.206 33.6875 252.339 32.5 251.698 31.0469C251.058 29.5781 250.737 27.9375 250.737 26.125C250.737 23.0469 251.823 20.4297 253.995 18.2734C256.183 16.1016 258.878 15.0156 262.081 15.0156C264.331 15.0156 266.347 15.4766 268.128 16.3984C269.909 17.3047 271.316 18.625 272.347 20.3594C273.378 22.0938 273.894 24.0938 273.894 26.3594ZM277.269 26.3594V43H275.581V26.3594C275.581 23.7812 274.987 21.5 273.8 19.5156C272.628 17.5156 271.019 15.9844 268.972 14.9219C266.925 13.8594 264.628 13.3281 262.081 13.3281C259.659 13.3281 257.448 13.9063 255.448 15.0625C253.448 16.2031 251.878 17.75 250.737 19.7031C249.612 21.6562 249.05 23.7969 249.05 26.125C249.05 28.125 249.417 29.9531 250.152 31.6094C250.886 33.25 251.87 34.6016 253.105 35.6641C254.355 36.7266 255.769 37.5547 257.347 38.1484C258.941 38.7266 260.605 39.0156 262.339 39.0156C264.105 39.0156 265.839 38.6484 267.542 37.9141V39.625C265.761 40.2969 264.011 40.6328 262.292 40.6328C259.589 40.6328 257.105 40.0234 254.839 38.8047C252.573 37.5859 250.761 35.8594 249.402 33.625C248.042 31.3906 247.362 28.8906 247.362 26.125C247.362 24.1562 247.737 22.2812 248.487 20.5C249.253 18.7188 250.284 17.1797 251.581 15.8828C252.878 14.5859 254.441 13.5547 256.269 12.7891C258.097 12.0234 260.034 11.6406 262.081 11.6406C264.941 11.6406 267.519 12.25 269.816 13.4688C272.128 14.6875 273.948 16.4219 275.277 18.6719C276.605 20.9219 277.269 23.4844 277.269 26.3594ZM280.644 26.3594V43H278.956V26.3594C278.956 23.1719 278.214 20.3281 276.73 17.8281C275.245 15.3125 273.222 13.375 270.659 12.0156C268.097 10.6406 265.237 9.95312 262.081 9.95312C259.05 9.95312 256.277 10.6797 253.761 12.1328C251.245 13.5859 249.269 15.5547 247.831 18.0391C246.394 20.5078 245.675 23.2031 245.675 26.125C245.675 28.0469 245.98 29.875 246.589 31.6094C247.214 33.3281 248.058 34.8359 249.12 36.1328C250.198 37.4141 251.433 38.5234 252.823 39.4609C254.23 40.3984 255.737 41.1094 257.347 41.5938C258.972 42.0781 260.62 42.3203 262.292 42.3203C264.136 42.3203 265.886 41.9688 267.542 41.2656V43C265.808 43.6094 264.027 43.9141 262.198 43.9141C260.308 43.9141 258.464 43.6484 256.667 43.1172C254.886 42.5859 253.23 41.8047 251.698 40.7734C250.183 39.7266 248.847 38.5 247.691 37.0938C246.534 35.6719 245.628 34.0156 244.972 32.125C244.316 30.2344 243.987 28.2344 243.987 26.125C243.987 23.7031 244.441 21.3984 245.347 19.2109C246.269 17.0078 247.519 15.1094 249.097 13.5156C250.691 11.9062 252.612 10.6328 254.862 9.69531C257.128 8.74219 259.534 8.26562 262.081 8.26562C264.675 8.26562 267.112 8.70313 269.394 9.57812C271.675 10.4531 273.644 11.6719 275.3 13.2344C276.956 14.7812 278.261 16.6875 279.214 18.9531C280.167 21.2188 280.644 23.6875 280.644 26.3594ZM283.616 9.25H285.303V43H283.616V9.25ZM293.741 9.25H295.428V34.5625H307.873V36.25H295.428V37.9375H307.873V39.625H295.428V41.3125H307.873V43H293.741V9.25ZM290.366 9.25H292.053V43H290.366V9.25ZM286.991 9.25H288.678V43H286.991V9.25Z" fill="#D2D2D2"/>
<path d="M53.575 75.6094L54.2547 73.9219H60.0203L60.7 75.6094H53.575ZM52.2625 78.9844L52.9187 77.2969H61.3328L62.0594 78.9844H52.2625ZM50.95 82.3594L51.6062 80.6719H62.6687L63.3719 82.3594H50.95ZM37.2391 87H35.4109L50.7625 48.1875H52.5906L67.9187 87H66.1141L51.6766 50.4609L37.2391 87ZM51.8875 54.4688L52.8484 56.625L40.8484 87H39.0437L51.8875 54.4688ZM53.7625 58.9219L54.6531 61.2422L44.5047 87H42.6766L53.7625 58.9219ZM55.5437 63.5625L56.4344 65.9297L48.1141 87H46.3094L55.5437 63.5625ZM78.8172 87H76.9891L61.6609 48.1875H63.4656L78.8172 87ZM59.8328 48.1875L75.1844 87H73.3797L58.0281 48.1875H59.8328ZM56.2 48.1875L71.5516 87H69.7234L54.3953 48.1875H56.2ZM96.0859 70.9453H93.4141C90.1328 70.9453 87.6094 70.2812 85.8437 68.9531C84.0781 67.6094 83.1953 65.7656 83.1953 63.4219C83.1953 61.2344 84.2344 59.4141 86.3125 57.9609C88.3906 56.4922 91.3047 55.7578 95.0547 55.7578C97.5547 55.7578 99.8828 56.1016 102.039 56.7891C104.211 57.4766 106.016 58.4453 107.453 59.6953L106.141 60.75C104.859 59.7031 103.25 58.8906 101.312 58.3125C99.375 57.7344 97.2891 57.4453 95.0547 57.4453C91.7578 57.4453 89.2344 58.0078 87.4844 59.1328C85.75 60.2578 84.8828 61.6875 84.8828 63.4219C84.8828 65.2969 85.5937 66.7422 87.0156 67.7578C88.4531 68.7578 90.5859 69.2578 93.4141 69.2578H95.9922C99.3203 69.2578 101.867 69.9297 103.633 71.2734C105.414 72.6016 106.305 74.4375 106.305 76.7812C106.305 78.9688 105.266 80.7969 103.187 82.2656C101.109 83.7188 98.1953 84.4453 94.4453 84.4453C91.9453 84.4453 89.6094 84.1016 87.4375 83.4141C85.2812 82.7266 83.4844 81.7578 82.0469 80.5078L83.3594 79.4531C84.6406 80.5 86.25 81.3125 88.1875 81.8906C90.125 82.4688 92.2109 82.7578 94.4453 82.7578C97.7422 82.7578 100.258 82.1953 101.992 81.0703C103.742 79.9453 104.617 78.5156 104.617 76.7812C104.617 74.9062 103.898 73.4688 102.461 72.4688C101.039 71.4531 98.9141 70.9453 96.0859 70.9453ZM96.0859 74.3203H93.4141C89.0703 74.3203 85.7187 73.3359 83.3594 71.3672C81 69.3828 79.8203 66.7344 79.8203 63.4219C79.8203 61.9062 80.1562 60.4844 80.8281 59.1562C81.5 57.8281 82.4609 56.6641 83.7109 55.6641C84.9766 54.6484 86.5859 53.8516 88.5391 53.2734C90.4922 52.6797 92.6641 52.3828 95.0547 52.3828C98.0703 52.3828 100.891 52.8438 103.516 53.7656C106.141 54.6719 108.328 55.9453 110.078 57.5859L108.719 58.5938C107.125 57.1562 105.133 56.0469 102.742 55.2656C100.352 54.4688 97.7891 54.0703 95.0547 54.0703C90.8359 54.0703 87.5234 54.9609 85.1172 56.7422C82.7109 58.5234 81.5078 60.75 81.5078 63.4219C81.5078 66.25 82.5391 68.4922 84.6016 70.1484C86.6641 71.8047 89.6016 72.6328 93.4141 72.6328H95.9922C100.617 72.6328 102.93 74.0156 102.93 76.7812C102.93 78.0312 102.219 79.0625 100.797 79.875C99.3906 80.6719 97.2734 81.0703 94.4453 81.0703C92.4609 81.0703 90.6172 80.8438 88.9141 80.3906C87.2109 79.9219 85.8047 79.2578 84.6953 78.3984L86.0312 77.3672C87.9844 78.7109 90.7891 79.3828 94.4453 79.3828C96.7891 79.3828 98.5078 79.1406 99.6016 78.6562C100.695 78.1719 101.242 77.5469 101.242 76.7812C101.242 75.8906 100.859 75.2578 100.094 74.8828C99.3281 74.5078 97.9922 74.3203 96.0859 74.3203ZM96.0859 67.5703H93.4141C88.8516 67.5703 86.5703 66.1875 86.5703 63.4219C86.5703 62.1719 87.2734 61.1484 88.6797 60.3516C90.1016 59.5391 92.2266 59.1328 95.0547 59.1328C97.0391 59.1328 98.8828 59.3672 100.586 59.8359C102.289 60.2891 103.695 60.9453 104.805 61.8047L103.469 62.8359C101.516 61.4922 98.7109 60.8203 95.0547 60.8203C92.7109 60.8203 90.9922 61.0625 89.8984 61.5469C88.8047 62.0312 88.2578 62.6562 88.2578 63.4219C88.2578 64.3125 88.6406 64.9453 89.4062 65.3203C90.1719 65.6953 91.5078 65.8828 93.4141 65.8828H96.0859C100.43 65.8828 103.781 66.875 106.141 68.8594C108.5 70.8281 109.68 73.4688 109.68 76.7812C109.68 78.2969 109.344 79.7188 108.672 81.0469C108 82.375 107.031 83.5469 105.766 84.5625C104.516 85.5625 102.914 86.3594 100.961 86.9531C99.0078 87.5312 96.8359 87.8203 94.4453 87.8203C91.4297 87.8203 88.6094 87.3672 85.9844 86.4609C83.3594 85.5391 81.1719 84.2578 79.4219 82.6172L80.7812 81.6094C82.375 83.0469 84.3672 84.1641 86.7578 84.9609C89.1484 85.7422 91.7109 86.1328 94.4453 86.1328C98.6641 86.1328 101.977 85.2422 104.383 83.4609C106.789 81.6797 107.992 79.4531 107.992 76.7812C107.992 73.9531 106.961 71.7109 104.898 70.0547C102.836 68.3984 99.8984 67.5703 96.0859 67.5703ZM122.308 53.25H123.995V87H122.308V53.25ZM118.933 53.25H120.62V87H118.933V53.25ZM115.558 53.25H117.245V87H115.558V53.25ZM112.183 53.25H113.87V87H112.183V53.25ZM142.717 70.9453H140.045C136.764 70.9453 134.241 70.2812 132.475 68.9531C130.709 67.6094 129.827 65.7656 129.827 63.4219C129.827 61.2344 130.866 59.4141 132.944 57.9609C135.022 56.4922 137.936 55.7578 141.686 55.7578C144.186 55.7578 146.514 56.1016 148.67 56.7891C150.842 57.4766 152.647 58.4453 154.084 59.6953L152.772 60.75C151.491 59.7031 149.881 58.8906 147.944 58.3125C146.006 57.7344 143.92 57.4453 141.686 57.4453C138.389 57.4453 135.866 58.0078 134.116 59.1328C132.381 60.2578 131.514 61.6875 131.514 63.4219C131.514 65.2969 132.225 66.7422 133.647 67.7578C135.084 68.7578 137.217 69.2578 140.045 69.2578H142.623C145.952 69.2578 148.498 69.9297 150.264 71.2734C152.045 72.6016 152.936 74.4375 152.936 76.7812C152.936 78.9688 151.897 80.7969 149.819 82.2656C147.741 83.7188 144.827 84.4453 141.077 84.4453C138.577 84.4453 136.241 84.1016 134.069 83.4141C131.912 82.7266 130.116 81.7578 128.678 80.5078L129.991 79.4531C131.272 80.5 132.881 81.3125 134.819 81.8906C136.756 82.4688 138.842 82.7578 141.077 82.7578C144.373 82.7578 146.889 82.1953 148.623 81.0703C150.373 79.9453 151.248 78.5156 151.248 76.7812C151.248 74.9062 150.53 73.4688 149.092 72.4688C147.67 71.4531 145.545 70.9453 142.717 70.9453ZM142.717 74.3203H140.045C135.702 74.3203 132.35 73.3359 129.991 71.3672C127.631 69.3828 126.452 66.7344 126.452 63.4219C126.452 61.9062 126.787 60.4844 127.459 59.1562C128.131 57.8281 129.092 56.6641 130.342 55.6641C131.608 54.6484 133.217 53.8516 135.17 53.2734C137.123 52.6797 139.295 52.3828 141.686 52.3828C144.702 52.3828 147.522 52.8438 150.147 53.7656C152.772 54.6719 154.959 55.9453 156.709 57.5859L155.35 58.5938C153.756 57.1562 151.764 56.0469 149.373 55.2656C146.983 54.4688 144.42 54.0703 141.686 54.0703C137.467 54.0703 134.155 54.9609 131.748 56.7422C129.342 58.5234 128.139 60.75 128.139 63.4219C128.139 66.25 129.17 68.4922 131.233 70.1484C133.295 71.8047 136.233 72.6328 140.045 72.6328H142.623C147.248 72.6328 149.561 74.0156 149.561 76.7812C149.561 78.0312 148.85 79.0625 147.428 79.875C146.022 80.6719 143.905 81.0703 141.077 81.0703C139.092 81.0703 137.248 80.8438 135.545 80.3906C133.842 79.9219 132.436 79.2578 131.327 78.3984L132.662 77.3672C134.616 78.7109 137.42 79.3828 141.077 79.3828C143.42 79.3828 145.139 79.1406 146.233 78.6562C147.327 78.1719 147.873 77.5469 147.873 76.7812C147.873 75.8906 147.491 75.2578 146.725 74.8828C145.959 74.5078 144.623 74.3203 142.717 74.3203ZM142.717 67.5703H140.045C135.483 67.5703 133.202 66.1875 133.202 63.4219C133.202 62.1719 133.905 61.1484 135.311 60.3516C136.733 59.5391 138.858 59.1328 141.686 59.1328C143.67 59.1328 145.514 59.3672 147.217 59.8359C148.92 60.2891 150.327 60.9453 151.436 61.8047L150.1 62.8359C148.147 61.4922 145.342 60.8203 141.686 60.8203C139.342 60.8203 137.623 61.0625 136.53 61.5469C135.436 62.0312 134.889 62.6562 134.889 63.4219C134.889 64.3125 135.272 64.9453 136.037 65.3203C136.803 65.6953 138.139 65.8828 140.045 65.8828H142.717C147.061 65.8828 150.412 66.875 152.772 68.8594C155.131 70.8281 156.311 73.4688 156.311 76.7812C156.311 78.2969 155.975 79.7188 155.303 81.0469C154.631 82.375 153.662 83.5469 152.397 84.5625C151.147 85.5625 149.545 86.3594 147.592 86.9531C145.639 87.5312 143.467 87.8203 141.077 87.8203C138.061 87.8203 135.241 87.3672 132.616 86.4609C129.991 85.5391 127.803 84.2578 126.053 82.6172L127.412 81.6094C129.006 83.0469 130.998 84.1641 133.389 84.9609C135.78 85.7422 138.342 86.1328 141.077 86.1328C145.295 86.1328 148.608 85.2422 151.014 83.4609C153.42 81.6797 154.623 79.4531 154.623 76.7812C154.623 73.9531 153.592 71.7109 151.53 70.0547C149.467 68.3984 146.53 67.5703 142.717 67.5703ZM164.791 62.6016H166.478V87H164.791V62.6016ZM158.041 54.9375V53.25H183.353V54.9375H158.041ZM158.041 58.3125V56.625H183.353V58.3125H158.041ZM158.041 61.6875V60H183.353V61.6875H158.041ZM174.916 62.6016H176.603V87H174.916V62.6016ZM171.541 62.6016H173.228V87H171.541V62.6016ZM168.166 62.6016H169.853V87H168.166V62.6016ZM194.317 87H192.63V53.25H194.317V87ZM190.942 87H189.255V53.25H190.942V87ZM187.567 87H185.88V53.25H187.567V87ZM197.692 78.5625H213.841V80.25H197.692V81.9375H213.841V83.625H197.692V85.3125H213.841V87H196.005V53.25H213.841V54.9375H197.692V56.625H213.841V58.3125H197.692V60H213.841V61.6875H197.692V65.8828H212.903V67.5703H197.692V69.2578H212.903V70.9453H197.692V72.6328H212.903V74.3203H197.692V78.5625ZM243.32 73.3828L241.633 70.3125V53.25H243.32V73.3828ZM246.695 79.2188L245.008 76.3594V53.25H246.695V79.2188ZM223.445 66.8672L225.133 69.9375V87H223.445V66.8672ZM220.07 60.7969L221.758 63.8906V87H220.07V60.7969ZM220.656 53.25H222.625L242.172 87H240.203L220.656 53.25ZM224.641 53.25H226.633L246.156 87H244.141L224.641 53.25ZM228.602 53.25H230.57L248.383 84.0703V53.25H250.07V87H248.078L228.602 53.25ZM218.383 56.1562V87H216.695V53.25H218.711L238.188 87H236.242L218.383 56.1562ZM259.253 62.6016H260.941V87H259.253V62.6016ZM252.503 54.9375V53.25H277.816V54.9375H252.503ZM252.503 58.3125V56.625H277.816V58.3125H252.503ZM252.503 61.6875V60H277.816V61.6875H252.503ZM269.378 62.6016H271.066V87H269.378V62.6016ZM266.003 62.6016H267.691V87H266.003V62.6016ZM262.628 62.6016H264.316V87H262.628V62.6016Z" fill="#D2D2D2"/>
</svg>
