<svg width="266" height="100" viewBox="0 0 266 100" fill="none" xmlns="http://www.w3.org/2000/svg">
<g clip-path="url(#clip0_2_8)">
<path d="M70.2344 57.6875L73.6094 51.3125V86H70.2344V57.6875ZM76.9844 44.75L80.3594 38.375V86H76.9844V44.75ZM83.7344 32L87.1094 25.5781V86H83.7344V32ZM61.0938 56.0938L59.1719 52.5781L82.4219 8.375H86.2188L61.0938 56.0938ZM57.2031 48.7344L55.2344 45.1719L74.7344 8.375H78.5781L57.2031 48.7344ZM34.6094 51.6875L37.9844 58.0625V86H34.6094V51.6875ZM27.8594 38.8438L31.2344 45.2188V86H27.8594V38.8438ZM21.1094 26L24.4844 32.4219V86H21.1094V26ZM48.3906 65.75H44.5938L17.7344 14.7969V86H14.3594V8.375H18.1562L48.3906 65.75ZM56.0312 65.75H52.1875L22 8.375H25.8438L56.0312 65.75ZM90.4844 14.7969L63.625 65.75H59.7812L29.6406 8.375H33.4375L61.75 62.1875L90.0156 8.375H93.8594V86H90.4844V14.7969ZM128.734 46.9531L127.047 50.6562L106.797 8.375H110.172L128.734 46.9531ZM132.109 39.5469L130.375 43.25L113.547 8.375H116.922L132.109 39.5469ZM135.484 32.1875L133.797 35.8906L120.297 8.375H123.672L135.484 32.1875ZM131.219 59.8438L155.641 8.375H159.016L134.594 59.8438V86H131.219V59.8438ZM137.969 59.8438L162.391 8.375H165.766L141.344 59.8438V86H137.969V59.8438ZM144.719 59.8438L169.141 8.375H172.516L148.094 59.8438V86H144.719V59.8438ZM126.156 56.2812L148.891 8.375H152.266L127.844 59.8438V86H124.469V59.8438L100.047 8.375H103.422L126.156 56.2812ZM204.766 49.25H224.359C227.578 49.25 230.297 48.1719 232.516 46.0156C234.766 43.8281 235.891 40.75 235.891 36.7812C235.891 33.8125 234.719 31.1562 232.375 28.8125C230.031 26.4375 227.359 25.25 224.359 25.25H195.391V86H192.016V21.875H224.359C228.297 21.875 231.766 23.3906 234.766 26.4219C237.766 29.4531 239.266 32.9062 239.266 36.7812C239.266 41.5625 237.812 45.4062 234.906 48.3125C232 51.1875 228.484 52.625 224.359 52.625H204.766V49.25ZM204.766 56H224.359C227.609 56 230.609 55.2188 233.359 53.6562C236.141 52.0625 238.375 49.7812 240.062 46.8125C241.781 43.8438 242.641 40.5 242.641 36.7812C242.641 31.9688 240.797 27.7188 237.109 24.0312C233.453 20.3438 229.203 18.5 224.359 18.5H188.641V86H185.266V15.125H224.359C228.141 15.125 231.703 16.125 235.047 18.125C238.391 20.125 241.047 22.7969 243.016 26.1406C245.016 29.4844 246.016 33.0312 246.016 36.7812C246.016 41.0312 245.016 44.9062 243.016 48.4062C241.016 51.875 238.359 54.5781 235.047 56.5156C231.766 58.4219 228.203 59.375 224.359 59.375H204.766V56ZM204.766 62.75H224.359C227.703 62.75 230.906 62.0938 233.969 60.7812C237.031 59.4375 239.688 57.6406 241.938 55.3906C244.219 53.1094 246.031 50.3594 247.375 47.1406C248.719 43.8906 249.391 40.4375 249.391 36.7812C249.391 32.4062 248.25 28.2969 245.969 24.4531C243.688 20.5781 240.609 17.5 236.734 15.2188C232.891 12.9062 228.766 11.75 224.359 11.75H181.891V86H178.516V8.375H224.359C229.359 8.375 234.047 9.6875 238.422 12.3125C242.797 14.9062 246.281 18.3906 248.875 22.7656C251.469 27.1406 252.766 31.8125 252.766 36.7812C252.766 41.2188 252 45.3125 250.469 49.0625C248.938 52.7812 246.875 55.875 244.281 58.3438C241.688 60.8125 238.672 62.7344 235.234 64.1094C231.797 65.4531 228.172 66.125 224.359 66.125H204.766V62.75ZM202.141 86H198.766V28.625H224.359C226.578 28.625 228.484 29.4375 230.078 31.0625C231.703 32.6875 232.516 34.5938 232.516 36.7812C232.516 42.8438 229.797 45.875 224.359 45.875H204.766V42.5H224.359C225.859 42.5 227.031 42.0781 227.875 41.2344C228.719 40.3906 229.141 38.9062 229.141 36.7812C229.141 35.4062 228.672 34.2656 227.734 33.3594C226.828 32.4531 225.703 32 224.359 32H202.141V86Z" fill="#D2D2D2"/>
</g>
<defs>
<clipPath id="clip0_2_8">
<rect width="266" height="100" fill="white"/>
</clipPath>
</defs>
</svg>
